<svg width="34" height="10" viewBox="0 0 34 10" fill="none" xmlns="http://www.w3.org/2000/svg">
<path d="M4.60547 0.785156C5.72266 0.785156 6.52734 0.876953 7.01953 1.06055C7.12891 1.09961 7.23438 1.19141 7.33594 1.33594C7.4375 1.48047 7.48828 1.73047 7.48828 2.08594C7.48828 2.44141 7.42383 2.67383 7.29492 2.7832L7.17773 2.84766C7.07227 2.84766 6.89844 2.71094 6.65625 2.4375C6.09375 1.8125 5.41797 1.5 4.62891 1.5C3.84375 1.5 3.21484 1.80664 2.74219 2.41992C2.27344 3.0332 2.03906 3.84961 2.03906 4.86914C2.03906 5.88477 2.28516 6.71289 2.77734 7.35352C3.26953 7.99805 3.91602 8.32031 4.7168 8.32031C5.23633 8.32031 5.61328 8.21094 5.84766 7.99219C6.08203 7.77344 6.19922 7.33984 6.19922 6.69141C6.19922 6.44141 6.14062 6.22266 6.02344 6.03516C5.99219 5.98438 5.91406 5.90039 5.78906 5.7832C5.66797 5.66211 5.60742 5.58594 5.60742 5.55469C5.60742 5.38672 5.99219 5.30273 6.76172 5.30273C7.25391 5.30273 7.58008 5.33008 7.74023 5.38477C7.90039 5.43555 7.98047 5.5332 7.98047 5.67773C7.98047 5.70508 7.92969 5.79492 7.82812 5.94727C7.72656 6.0957 7.66797 6.19531 7.65234 6.24609C7.63672 6.29688 7.60352 6.63281 7.55273 7.25391C7.50586 7.87109 7.4375 8.24219 7.34766 8.36719C7.26172 8.49219 7.04492 8.60742 6.69727 8.71289C5.81055 8.98633 5.15625 9.12305 4.73438 9.12305H4.5C3.95312 9.12305 3.4375 9.0293 2.95312 8.8418C2.46875 8.65039 2.05664 8.38477 1.7168 8.04492C1.37695 7.70508 1.10352 7.26758 0.896484 6.73242C0.689453 6.19727 0.585938 5.64844 0.585938 5.08594V4.83398C0.585938 4.2832 0.695312 3.73828 0.914062 3.19922C1.32422 2.19141 2.00781 1.49414 2.96484 1.10742C3.49609 0.892578 4.04297 0.785156 4.60547 0.785156ZM11.7656 1.49414C11.5898 1.49414 11.4824 1.56055 11.4434 1.69336C11.4199 1.77539 11.4082 2.14453 11.4082 2.80078V3.9375C11.4082 4.17969 11.4297 4.33008 11.4727 4.38867C11.5156 4.44336 11.6484 4.4707 11.8711 4.4707H12.1172L12.1699 4.46484L12.5215 4.44727C12.5566 4.44336 12.5898 4.44141 12.6211 4.44141C12.9961 4.44141 13.3105 4.30273 13.5645 4.02539C13.8184 3.74805 13.9453 3.41211 13.9453 3.01758V2.85938C13.9453 2.45703 13.8066 2.13086 13.5293 1.88086C13.2559 1.62695 12.9199 1.5 12.5215 1.5L12.416 1.48828L12.2637 1.48242H11.9121C11.8496 1.49023 11.8008 1.49414 11.7656 1.49414ZM12.4688 5.07422H11.9648C11.6641 5.07422 11.4941 5.11523 11.4551 5.19727C11.4199 5.2793 11.4023 5.52734 11.4023 5.94141V7.62305C11.4023 7.98633 11.4453 8.20898 11.5312 8.29102C11.6211 8.36914 11.8672 8.4082 12.2695 8.4082H12.6152C13.1309 8.4082 13.5488 8.27344 13.8691 8.00391C14.1895 7.73047 14.3496 7.37109 14.3496 6.92578V6.62109C14.3496 6.14062 14.1738 5.76367 13.8223 5.49023C13.4707 5.21289 13.0195 5.07422 12.4688 5.07422ZM12.334 0.855469C13.7246 0.855469 14.6172 1.2207 15.0117 1.95117C15.1523 2.20898 15.2227 2.50586 15.2227 2.8418C15.2227 3.17383 15.1426 3.4668 14.9824 3.7207C14.8262 3.97461 14.6855 4.15234 14.5605 4.25391C14.4395 4.35156 14.3145 4.43945 14.1855 4.51758C14.0605 4.5918 13.998 4.64062 13.998 4.66406C13.998 4.6875 14.1543 4.7793 14.4668 4.93945C14.7832 5.0957 15.0332 5.28125 15.2168 5.49609C15.5449 5.88672 15.709 6.28906 15.709 6.70312V6.85547C15.709 7.54297 15.4277 8.08984 14.8652 8.49609C14.6621 8.64453 14.377 8.77539 14.0098 8.88867C13.6465 8.99805 13.2129 9.05273 12.709 9.05273H12.0879L11.9355 9.04688C11.834 9.04297 11.7305 9.04102 11.625 9.04102L11.4727 9.03516C11.3711 9.03125 11.2695 9.0293 11.168 9.0293L11.0156 9.02344C10.9141 9.01953 10.8125 9.01758 10.7109 9.01758H10.2598C9.58008 9.01758 9.24023 8.95312 9.24023 8.82422C9.24023 8.69141 9.34375 8.56836 9.55078 8.45508C9.76172 8.33789 9.89844 8.14062 9.96094 7.86328C10.0273 7.58203 10.0605 6.92969 10.0605 5.90625V3.97852L10.0488 3.36914C10.0449 3.26758 10.043 3.02539 10.043 2.64258C10.043 2.25977 10.0059 1.99219 9.93164 1.83984C9.86133 1.68359 9.71875 1.55469 9.50391 1.45312C9.28906 1.35156 9.18164 1.26172 9.18164 1.18359C9.18164 1.07031 9.23633 0.994141 9.3457 0.955078C9.45508 0.912109 9.79102 0.890625 10.3535 0.890625L11.7129 0.855469H12.334ZM19.9512 6.28711H19.8516C19.3398 6.28711 18.9121 6.40234 18.5684 6.63281C18.2285 6.85938 18.0586 7.14258 18.0586 7.48242V7.59961C18.0586 7.79883 18.1191 7.97852 18.2402 8.13867C18.3652 8.29492 18.5254 8.37305 18.7207 8.37305L18.791 8.38477H18.9668C19.373 8.38477 19.7051 8.21875 19.9629 7.88672C20.0762 7.74219 20.1328 7.44531 20.1328 6.99609C20.1328 6.96094 20.1328 6.92578 20.1328 6.89062L20.1387 6.75V6.60938C20.1387 6.39453 20.0762 6.28711 19.9512 6.28711ZM17.1035 4.39453C17.1035 4.10547 17.332 3.84766 17.7891 3.62109C18.25 3.39062 18.7266 3.27539 19.2188 3.27539C19.2344 3.27539 19.25 3.27539 19.2656 3.27539C19.7344 3.27539 20.1094 3.33203 20.3906 3.44531C20.9609 3.67188 21.2871 4.15234 21.3691 4.88672C21.377 4.96094 21.3809 5.45312 21.3809 6.36328C21.3809 7.26953 21.4043 7.80078 21.4512 7.95703C21.502 8.11328 21.6348 8.22852 21.8496 8.30273C22.0684 8.37695 22.1777 8.44727 22.1777 8.51367C22.1777 8.6543 22.1074 8.76172 21.9668 8.83594C21.6855 8.98438 21.4082 9.05859 21.1348 9.05859C20.8652 9.05859 20.6641 8.99609 20.5312 8.87109C20.293 8.64844 20.166 8.53711 20.1504 8.53711C20.1348 8.53711 19.9141 8.63672 19.4883 8.83594C19.0625 9.03125 18.6895 9.12891 18.3691 9.12891C17.8887 9.12891 17.5117 8.99609 17.2383 8.73047C16.9648 8.46484 16.8281 8.14258 16.8281 7.76367V7.61719C16.8281 7.21094 17.0039 6.85352 17.3555 6.54492C17.707 6.23633 18.3398 5.99609 19.2539 5.82422C19.5859 5.76172 19.7949 5.70312 19.8809 5.64844C20.0527 5.53906 20.1387 5.31641 20.1387 4.98047C20.1387 4.64453 20.0488 4.38672 19.8691 4.20703C19.6895 4.02734 19.4492 3.9375 19.1484 3.9375C18.8477 3.9375 18.5566 4.11328 18.2754 4.46484C17.998 4.8125 17.7441 4.98633 17.5137 4.98633C17.2402 4.98633 17.1035 4.78906 17.1035 4.39453ZM26.9238 6.36914C27.2324 6.66211 27.3867 7.0332 27.3867 7.48242C27.3867 7.92773 27.2031 8.31055 26.8359 8.63086C26.4688 8.94727 25.9609 9.10547 25.3125 9.10547H25.1543C24.416 9.10547 23.8535 9.01367 23.4668 8.83008C23.252 8.72852 23.1445 8.50195 23.1445 8.15039V8.00391C23.1445 7.55469 23.2285 7.33008 23.3965 7.33008C23.5371 7.33008 23.7031 7.46289 23.8945 7.72852C24.0859 7.99023 24.2461 8.16602 24.375 8.25586C24.625 8.42773 24.918 8.51367 25.2539 8.51367C25.5938 8.51367 25.8438 8.44336 26.0039 8.30273C26.1641 8.1582 26.2441 7.96875 26.2441 7.73438C26.2441 7.5 26.1074 7.2832 25.834 7.08398C25.6895 6.97852 25.3516 6.8125 24.8203 6.58594C24.293 6.35938 23.8984 6.12305 23.6367 5.87695C23.375 5.62695 23.2441 5.27539 23.2441 4.82227C23.2441 4.36914 23.4336 4.00195 23.8125 3.7207C24.1914 3.43555 24.6582 3.29297 25.2129 3.29297H25.3711C26.0977 3.29297 26.6074 3.37891 26.9004 3.55078C27.0527 3.64062 27.1289 3.89062 27.1289 4.30078C27.1289 4.71094 27.0312 4.91602 26.8359 4.91602C26.7266 4.91602 26.5762 4.79492 26.3848 4.55273C26.1973 4.30664 26.0254 4.13281 25.8691 4.03125C25.7129 3.92578 25.4961 3.87305 25.2188 3.87305C24.9453 3.87305 24.7285 3.93555 24.5684 4.06055C24.4082 4.18555 24.3281 4.36719 24.3281 4.60547C24.3281 4.83984 24.4746 5.05078 24.7676 5.23828C24.8418 5.28906 25.166 5.43945 25.7402 5.68945C26.3145 5.93945 26.709 6.16602 26.9238 6.36914ZM32.0801 5.19141V5.00977C32.0801 4.7207 31.9766 4.46094 31.7695 4.23047C31.5625 3.99609 31.3086 3.87891 31.0078 3.87891H30.8965C30.8418 3.88672 30.8047 3.89062 30.7852 3.89062C30.5117 3.89062 30.252 4.04688 30.0059 4.35938C29.7637 4.67188 29.6426 5.00586 29.6426 5.36133V5.4375C29.6426 5.5625 29.7168 5.625 29.8652 5.625C29.9238 5.63672 29.9551 5.64258 29.959 5.64258L30.0938 5.64844H30.1289L30.1699 5.64258L31.3008 5.57812L31.5117 5.55469C31.8906 5.55469 32.0801 5.43359 32.0801 5.19141ZM29.6426 6.74414C29.6426 7.18945 29.8105 7.5625 30.1465 7.86328C30.4824 8.16406 30.9082 8.31445 31.4238 8.31445C31.6309 8.31445 31.8184 8.28516 31.9863 8.22656C32.1582 8.16406 32.3438 8.08984 32.543 8.00391C32.7461 7.91797 32.873 7.875 32.9238 7.875C33.0801 7.875 33.1582 7.95898 33.1582 8.12695C33.1582 8.35352 32.8691 8.5957 32.291 8.85352C31.916 9.02148 31.5137 9.10547 31.084 9.10547H30.9551C30.2207 9.10547 29.6113 8.88281 29.127 8.4375C28.8652 8.19531 28.6621 7.88672 28.5176 7.51172C28.373 7.13281 28.3008 6.72656 28.3008 6.29297L28.3066 6.1582V6.02344C28.3066 5.64844 28.3926 5.2793 28.5645 4.91602C28.7402 4.55273 28.9492 4.25391 29.1914 4.01953C29.7031 3.52734 30.3105 3.2793 31.0137 3.27539C32.0762 3.27539 32.7832 3.68945 33.1348 4.51758C33.2441 4.7793 33.2988 5.01953 33.2988 5.23828V5.35547C33.2988 5.625 33.1875 5.80664 32.9648 5.90039C32.7422 5.99023 32.2168 6.06445 31.3887 6.12305C30.5605 6.18164 30.1113 6.2207 30.041 6.24023C29.7754 6.30664 29.6426 6.47461 29.6426 6.74414Z" fill="white"/>
</svg>
