<svg width="100" height="100" viewBox="0 0 100 100" fill="none" xmlns="http://www.w3.org/2000/svg">
<path d="M76.9461 91.2433C76.1652 92.8494 74.5149 93.9545 72.614 93.9545H61.3123V84.3178H69.8439L79.7458 67.1663C79.79 67.0779 79.8489 67.0042 79.8931 66.9158L86.8775 54.8184H61.3123V45.1817H95.2028C96.0132 45.1964 96.8384 45.4027 97.5899 45.8447C99.8885 47.1709 100.684 50.1032 99.358 52.4018L88.2037 71.7194C88.1595 71.8078 88.1152 71.8962 88.0563 71.9846L76.9314 91.258L76.9461 91.2433ZM61.3123 6.04553H72.614C75.2811 6.04553 77.4324 8.19684 77.4324 10.8639C77.4324 11.9101 77.1082 12.8678 76.5483 13.6488L61.327 40.0244V20.8247L64.3035 15.6675H61.327V6.04553H61.3123ZM61.3123 93.9545H38.7236V84.3178H61.3123V93.9545ZM38.7088 6.04553H61.2976V15.6822H38.7088V6.04553ZM61.3123 40.0244L58.3358 45.1817H61.3123V54.8184H52.766L38.7088 79.1606V59.9609L41.6853 54.8036H38.7088V45.1669H47.2404L61.2976 20.8247V40.0244H61.3123ZM38.7088 93.9545H27.4071V79.5142L38.6941 59.9609V79.1606L35.7176 84.3178H38.6941V93.9545H38.7088ZM27.4218 6.04553H38.7236V15.6822H30.192L27.4218 20.4858V6.04553ZM38.7088 45.1817V54.8184H27.4071V45.1817H38.7088ZM27.4218 93.9545C25.521 93.9545 23.8707 92.8494 23.0897 91.2433L11.9648 71.9699C11.9206 71.8815 11.8617 71.7931 11.8175 71.7047L0.8841 52.7849C0.32417 52.004 0 51.0315 0 50C0 48.9686 0.32417 47.9961 0.8841 47.2151L11.9501 28.0449V28.0301L23.2518 8.46207C24.1507 6.9149 25.7568 6.04553 27.4218 6.04553V20.4711L20.2901 32.8337L13.1583 45.1669H27.4366V54.8036H13.1583L20.1427 66.9011C20.2017 66.9747 20.2459 67.0631 20.2901 67.1516L27.4218 79.5142V93.9545Z" fill="#6C5CE7"/>
</svg>
